<svg width="21" height="20" viewBox="0 0 21 20" fill="none" xmlns="http://www.w3.org/2000/svg">
<path d="M16.3335 13.1025C16.4859 13.1025 16.6352 13.1153 16.7825 13.1341C15.9747 12.2327 15.1609 12.1636 14.9161 12.1063C14.1606 11.9294 13.2447 12.0047 12.7566 11.8525C12.6992 12.3317 11.3058 13.9072 10.3929 14.8949L9.99685 13.369C10.2945 13.1942 10.3593 12.8069 10.3593 12.485H8.8587C8.8587 12.8044 8.9228 13.1875 9.2144 13.365L8.82508 14.8947C7.91174 13.9069 6.51899 12.3311 6.46161 11.8525C5.97322 12.0052 5.05809 11.9299 4.30209 12.1067C3.91793 12.1957 2.13429 12.3098 1.16895 15.6321C1.03828 16.0837 1.08423 16.5725 1.29715 16.9749C2.08856 18.4703 6.24756 18.9302 9.60955 18.93C10.8286 18.9302 12.1521 18.8692 13.3821 18.7206C12.9827 18.1428 12.7474 17.4428 12.7474 16.6886C12.7474 14.7113 14.3562 13.1025 16.3335 13.1025Z" fill="black"/>
<path d="M5.63703 8.3174C5.99273 9.27445 6.55575 10.2039 7.25212 10.8842C7.64615 11.2694 8.08276 11.574 8.54851 11.7587C8.86879 11.8856 9.20252 11.956 9.54589 11.956C9.88859 11.956 10.223 11.8858 10.5428 11.7587C11.0245 11.5673 11.4763 11.2484 11.8807 10.8436C12.56 10.1654 13.1087 9.25024 13.4579 8.30956C13.7262 8.23066 14.007 7.72816 14.1218 7.08624C14.2462 6.38986 14.1285 5.78247 13.8602 5.68116C13.8699 5.51127 13.8759 5.33936 13.8755 5.16296C13.8692 2.63879 12.389 1.17117 10.0553 1.01495C8.02067 0.878453 6.48783 1.68667 5.78966 3.03057C5.55477 3.48265 5.42052 4.04813 5.36919 4.6627C5.29097 4.98276 5.2448 5.31515 5.2448 5.65875H5.25242C5.25219 5.66166 5.25174 5.66412 5.25174 5.66681C5.24681 5.66749 5.24188 5.66771 5.23673 5.66861C4.9393 5.72038 4.8037 6.35535 4.93415 7.08669C5.05384 7.75864 5.35709 8.2784 5.63703 8.3174ZM5.70427 6.43671C5.73318 6.35109 5.77218 6.28407 5.82171 6.24866C5.84256 6.23342 5.86542 6.22356 5.88962 6.2193C5.94499 6.20966 6.00281 6.23096 6.05952 6.27645H6.05996C6.06019 6.27197 6.06041 6.26749 6.06086 6.26301C6.08036 6.07339 6.33341 4.41616 7.92856 4.56431C7.92856 4.56431 9.32737 5.07847 10.5995 4.62393C10.7365 4.62079 10.8692 4.61989 10.9933 4.6246C11.5207 4.6441 11.8814 4.91754 12.2588 5.09326C12.2447 4.91978 12.1122 4.7416 12.1183 4.6246C12.179 4.64186 12.2344 4.66741 12.2864 4.6961C12.5594 4.98568 12.8227 5.47227 13.0314 6.26682C13.0318 6.27018 13.0318 6.27354 13.0323 6.2769C13.0327 6.27645 13.0332 6.27623 13.0341 6.27556C13.0341 6.27601 13.0345 6.27645 13.0345 6.27645L13.0383 6.27287C13.0932 6.22961 13.1499 6.20966 13.2026 6.21908C13.2167 6.22154 13.2297 6.2258 13.243 6.23163C13.4162 6.31321 13.4911 6.71934 13.4084 7.18284C13.3458 7.53832 13.2066 7.83081 13.0585 7.9561C12.9989 8.00608 12.9386 8.02917 12.8812 8.01908C12.8485 8.01393 12.8191 7.99779 12.7924 7.97291C12.4701 8.97658 11.8549 9.97688 11.0787 10.5838C10.6735 10.9008 10.2241 11.1114 9.75008 11.159C9.68239 11.1655 9.61425 11.1693 9.54545 11.1693C9.00753 11.1693 8.49785 10.9561 8.04264 10.6074C7.25235 10.0027 6.6259 8.9898 6.29911 7.97291C6.27244 7.99779 6.24308 8.0137 6.21058 8.01908C6.14357 8.03074 6.07296 7.99734 6.00528 7.92988C5.86811 7.79271 5.74304 7.51568 5.68365 7.18307C5.67961 7.1611 5.67782 7.14004 5.67446 7.11829C5.67827 6.8852 5.68813 6.65972 5.70427 6.43671Z" fill="black"/>
<path d="M16.3337 13.5527C14.6031 13.5527 13.1958 14.9601 13.1958 16.6906C13.1958 18.4211 14.6031 19.8284 16.3337 19.8284C18.0637 19.8284 19.4715 18.4211 19.4715 16.6906C19.4715 14.9601 18.0637 13.5527 16.3337 13.5527ZM15.6695 18.1253L14.6527 17.1086L15.1776 16.5837L15.6695 17.0756L17.4897 15.2555L18.0146 15.7802L15.6695 18.1253Z" fill="black"/>
</svg>
