<svg xmlns="http://www.w3.org/2000/svg" width="24.855" height="24.894" viewBox="0 0 24.855 24.894">
  <g id="icon_12" transform="translate(-2.652 -2.364)">
    <path id="Path_1" data-name="Path 1" d="M4.12,25.753,12.075,17.8M22.093,14.26,19.711,21.4a.749.749,0,0,1-.5.483l-14.6,4.339a.75.75,0,0,1-.925-.956l4.74-14.218a.75.75,0,0,1,.425-.456L15.59,7.823a.75.75,0,0,1,.816.163l5.5,5.506a.75.75,0,0,1,.181.769Z" fill="none" stroke="#fff" stroke-linecap="round" stroke-linejoin="round" stroke-width="2"/>
    <path id="Path_2" data-name="Path 2" d="M22.24,13.82l3.535-3.536a2.5,2.5,0,0,0,0-3.535L23.125,4.1a2.5,2.5,0,0,0-3.536,0L16.054,7.632m-1.328,7.513a1.875,1.875,0,1,0,.549,1.326A1.876,1.876,0,0,0,14.726,15.145Z" fill="none" stroke="#fff" stroke-linecap="round" stroke-linejoin="round" stroke-width="2"/>
  </g>
</svg>
