<svg xmlns="http://www.w3.org/2000/svg" width="24" height="30" viewBox="0 0 24 30">
  <path id="icon_13" d="M12.833,21.178a25.647,25.647,0,0,1,8.023.967,5.117,5.117,0,0,1,2.1,1.241,2.355,2.355,0,0,1,.632,1.68,2.328,2.328,0,0,1-.633,1.67,5.128,5.128,0,0,1-2.1,1.231,25.967,25.967,0,0,1-8.015.95,25.649,25.649,0,0,1-8.023-.967,5.12,5.12,0,0,1-2.1-1.241,2.355,2.355,0,0,1-.632-1.68,2.328,2.328,0,0,1,.633-1.67,5.129,5.129,0,0,1,2.1-1.231A25.971,25.971,0,0,1,12.833,21.178Zm0-19.761A6.687,6.687,0,1,1,6.142,8.1,6.66,6.66,0,0,1,12.833,1.417Z" transform="translate(-0.833 -0.167)" fill="none" stroke="#fff" stroke-width="2.5"/>
</svg>
