<svg xmlns="http://www.w3.org/2000/svg" width="24.875" height="22.5" viewBox="0 0 24.875 22.5">
  <path id="icon_14" d="M13.193,1c3.093,0,5.615,2.2,5.648,4.921h.274c3.452,0,6.26,2.47,6.26,5.505V17.5c0,3.035-2.808,5.5-6.26,5.5H7.26C3.809,23,1,20.531,1,17.5V11.428C1,8.392,3.809,5.922,7.26,5.922h.255l.008-.214A4.693,4.693,0,0,1,9.188,2.442,6.3,6.3,0,0,1,13.193,1Zm5.922,6.572h-.274v1.74a.945.945,0,0,1-1.875,0V7.571H9.389v1.74a.887.887,0,0,1-.937.825.887.887,0,0,1-.937-.825V7.571H7.26a4.151,4.151,0,0,0-4.385,3.855V17.5A4.151,4.151,0,0,0,7.26,21.35H19.115A4.151,4.151,0,0,0,23.5,17.5V11.428A4.151,4.151,0,0,0,19.115,7.572ZM13.189,2.65a4.227,4.227,0,0,0-2.681.964A3.12,3.12,0,0,0,9.389,5.921h7.574l0-.14A3.611,3.611,0,0,0,13.189,2.65Z" transform="translate(-0.75 -0.75)" fill="#fff" stroke="#fff" stroke-width="0.5" fill-rule="evenodd"/>
</svg>
