<svg xmlns="http://www.w3.org/2000/svg" width="25.745" height="25.747" viewBox="0 0 25.745 25.747">
  <path id="icon_15" d="M11.123,6.019,7.12,1.4A1.259,1.259,0,0,0,5.276,1.4L1.984,4.7A3.182,3.182,0,0,0,1.29,8.309,34.565,34.565,0,0,0,17.339,24.38a3.175,3.175,0,0,0,3.6-.695l3.323-3.329a1.263,1.263,0,0,0,0-1.851l-4.639-3.982a1.275,1.275,0,0,0-1.725.125l-1.614,1.617a.547.547,0,0,1-.654.1A17.228,17.228,0,0,1,9.29,10.018a.548.548,0,0,1,.1-.656L11,7.751a1.28,1.28,0,0,0,.119-1.734Z" transform="translate(0.076)" fill="none" stroke="#fff" stroke-linecap="round" stroke-linejoin="round" stroke-width="2"/>
</svg>
