<svg width="21" height="20" viewBox="0 0 21 20" fill="none" xmlns="http://www.w3.org/2000/svg">
<path d="M18.232 3.63434H16.0615V1.46387L18.232 3.63434Z" fill="black"/>
<path d="M15.5967 4.56577C15.3425 4.56577 15.1316 4.35493 15.1316 4.10067V1H6.29471C5.61256 1 5.05444 1.55812 5.05444 2.24027V5.65101C5.85541 5.65101 6.60924 5.85398 7.26746 6.21099C7.34404 6.15549 7.43322 6.11611 7.53498 6.11611H13.1162C13.373 6.11611 13.5813 6.32441 13.5813 6.58121C13.5813 6.83801 13.373 7.04631 13.1162 7.04631H8.37229C8.80446 7.48667 9.14739 8.0131 9.37802 8.59665H16.2169C16.4737 8.59665 16.682 8.80495 16.682 9.06175C16.682 9.31855 16.4737 9.52685 16.2169 9.52685H9.63563C9.67817 9.77949 9.70545 10.0373 9.70545 10.302C9.70545 10.5667 9.67817 10.8245 9.63563 11.0772H16.2169C16.4737 11.0772 16.682 11.2855 16.682 11.5423C16.682 11.7991 16.4737 12.0074 16.2169 12.0074H9.37802C9.14739 12.5909 8.80446 13.1174 8.37229 13.5577H8.77525C9.03205 13.5577 9.24035 13.766 9.24035 14.0228C9.24035 14.2796 9.03205 14.4879 8.77525 14.4879H7.53498C7.43322 14.4879 7.34404 14.4485 7.26746 14.393C6.60924 14.7501 5.85541 14.953 5.05444 14.953V18.3638C5.05444 19.0459 5.61256 19.604 6.29471 19.604H17.4571C18.1393 19.604 18.6974 19.0459 18.6974 18.3638V4.56577H15.5967ZM13.1162 16.9685H7.53498C7.27818 16.9685 7.06988 16.7602 7.06988 16.5034C7.06988 16.2466 7.27818 16.0383 7.53498 16.0383H13.1162C13.373 16.0383 13.5813 16.2466 13.5813 16.5034C13.5813 16.7602 13.373 16.9685 13.1162 16.9685ZM16.2169 16.9685H14.9766C14.7198 16.9685 14.5115 16.7602 14.5115 16.5034C14.5115 16.2466 14.7198 16.0383 14.9766 16.0383H16.2169C16.4737 16.0383 16.682 16.2466 16.682 16.5034C16.682 16.7602 16.4737 16.9685 16.2169 16.9685ZM16.2169 14.4879H10.6357C10.3789 14.4879 10.1706 14.2796 10.1706 14.0228C10.1706 13.766 10.3789 13.5577 10.6357 13.5577H16.2169C16.4737 13.5577 16.682 13.766 16.682 14.0228C16.682 14.2796 16.4737 14.4879 16.2169 14.4879ZM8.77525 4.56577H7.53498C7.27818 4.56577 7.06988 4.35747 7.06988 4.10067C7.06988 3.84388 7.27818 3.63557 7.53498 3.63557H8.77525C9.03205 3.63557 9.24035 3.84388 9.24035 4.10067C9.24035 4.35747 9.03205 4.56577 8.77525 4.56577ZM13.1162 4.56577H10.6357C10.3789 4.56577 10.1706 4.35747 10.1706 4.10067C10.1706 3.84388 10.3789 3.63557 10.6357 3.63557H13.1162C13.373 3.63557 13.5813 3.84388 13.5813 4.10067C13.5813 4.35747 13.373 4.56577 13.1162 4.56577ZM16.2169 7.04631H14.9766C14.7198 7.04631 14.5115 6.83801 14.5115 6.58121C14.5115 6.32441 14.7198 6.11611 14.9766 6.11611H16.2169C16.4737 6.11611 16.682 6.32441 16.682 6.58121C16.682 6.83801 16.4737 7.04631 16.2169 7.04631Z" fill="black"/>
<path d="M5.0543 6.58105C3.00166 6.58105 1.3335 8.24922 1.3335 10.3019C1.3335 12.3545 3.00166 14.0227 5.0543 14.0227C7.10695 14.0227 8.77511 12.3545 8.77511 10.3019C8.77511 8.24922 7.10695 6.58105 5.0543 6.58105ZM6.23256 10.8228C6.4124 11.0026 6.4124 11.294 6.23256 11.4801C6.13954 11.5669 6.02171 11.6165 5.90389 11.6165C5.78606 11.6165 5.66204 11.5669 5.57522 11.4801L5.0543 10.9592L4.53339 11.4801C4.44657 11.5669 4.32255 11.6165 4.20472 11.6165C4.08689 11.6165 3.96907 11.5669 3.87605 11.4801C3.69621 11.2941 3.69621 11.0026 3.87605 10.8228L4.39696 10.3019L3.87605 9.78095C3.69621 9.60111 3.69621 9.30971 3.87605 9.12361C4.06209 8.94377 4.35355 8.94377 4.53339 9.12361L5.0543 9.64452L5.57522 9.12361C5.75506 8.94377 6.04646 8.94377 6.23256 9.12361C6.4124 9.30965 6.4124 9.60111 6.23256 9.78095L5.71165 10.3019L6.23256 10.8228Z" fill="black"/>
</svg>
