<svg width="21" height="20" viewBox="0 0 21 20" fill="none" xmlns="http://www.w3.org/2000/svg">
<path d="M17.7143 2.28571H16.4286V1.64286C16.4286 1.47236 16.3608 1.30885 16.2403 1.18829C16.1197 1.06773 15.9562 1 15.7857 1C15.6152 1 15.4517 1.06773 15.3311 1.18829C15.2106 1.30885 15.1429 1.47236 15.1429 1.64286V2.28571H12.5714V1.64286C12.5714 1.47236 12.5037 1.30885 12.3831 1.18829C12.2626 1.06773 12.0991 1 11.9286 1C11.7581 1 11.5946 1.06773 11.474 1.18829C11.3534 1.30885 11.2857 1.47236 11.2857 1.64286V2.28571H8.71429V1.64286C8.71429 1.47236 8.64656 1.30885 8.526 1.18829C8.40544 1.06773 8.24192 1 8.07143 1C7.90093 1 7.73742 1.06773 7.61686 1.18829C7.4963 1.30885 7.42857 1.47236 7.42857 1.64286V2.28571H4.85714V1.64286C4.85714 1.47236 4.78941 1.30885 4.66885 1.18829C4.5483 1.06773 4.38478 1 4.21429 1C4.04379 1 3.88028 1.06773 3.75972 1.18829C3.63916 1.30885 3.57143 1.47236 3.57143 1.64286V2.28571H2.28571C1.94472 2.28571 1.6177 2.42117 1.37658 2.66229C1.13546 2.90341 1 3.23044 1 3.57143V6.14286H19V3.57143C19 3.23044 18.8645 2.90341 18.6234 2.66229C18.3823 2.42117 18.0553 2.28571 17.7143 2.28571Z" fill="black"/>
<path d="M1 17.7154C1 18.0564 1.13546 18.3834 1.37658 18.6245C1.6177 18.8657 1.94472 19.0011 2.28571 19.0011H17.7143C18.0553 19.0011 18.3823 18.8657 18.6234 18.6245C18.8645 18.3834 19 18.0564 19 17.7154V7.42969H1V17.7154ZM5.04357 12.759C5.10333 12.6987 5.17443 12.6509 5.25277 12.6183C5.33111 12.5856 5.41514 12.5688 5.5 12.5688C5.58486 12.5688 5.66889 12.5856 5.74723 12.6183C5.82557 12.6509 5.89667 12.6987 5.95643 12.759L6.15571 12.9647C6.21061 12.1322 6.53397 11.3399 7.0773 10.7067C7.62063 10.0735 8.35462 9.63355 9.16916 9.45285C9.98371 9.27216 10.8349 9.36046 11.595 9.7045C12.3551 10.0485 12.9832 10.6298 13.3849 11.361C13.7867 12.0922 13.9406 12.934 13.8234 13.7601C13.7063 14.5862 13.3244 15.352 12.7351 15.9427C12.1458 16.5333 11.3809 16.917 10.5551 17.0361C9.72933 17.1552 8.88717 17.0033 8.155 16.6033C8.08071 16.561 8.01546 16.5046 7.96298 16.4372C7.9105 16.3698 7.87181 16.2927 7.84912 16.2103C7.82644 16.1279 7.8202 16.0419 7.83077 15.9571C7.84134 15.8723 7.8685 15.7904 7.91071 15.7161C7.95292 15.6418 8.00935 15.5766 8.07678 15.5241C8.14421 15.4716 8.22131 15.4329 8.30369 15.4102C8.47006 15.3644 8.64782 15.3866 8.79786 15.4718C9.16526 15.6774 9.57902 15.7858 10 15.7868C10.682 15.7868 11.336 15.5159 11.8183 15.0337C12.3005 14.5514 12.5714 13.8974 12.5714 13.2154C12.5748 12.7857 12.4662 12.3625 12.2564 11.9875C11.9922 11.5149 11.5856 11.1377 11.0945 10.9097C10.6033 10.6818 10.0527 10.6147 9.52122 10.718C8.98969 10.8213 8.50435 11.0898 8.13436 11.4851C7.76437 11.8804 7.52862 12.3825 7.46071 12.9197L7.615 12.759C7.73605 12.6379 7.90023 12.5699 8.07143 12.5699C8.24262 12.5699 8.4068 12.6379 8.52786 12.759C8.64891 12.88 8.71692 13.0442 8.71692 13.2154C8.71692 13.3866 8.64891 13.5508 8.52786 13.6718L7.24214 14.9575C7.18238 15.0178 7.11128 15.0656 7.03294 15.0983C6.9546 15.1309 6.87058 15.1477 6.78571 15.1477C6.70085 15.1477 6.61682 15.1309 6.53849 15.0983C6.46015 15.0656 6.38905 15.0178 6.32929 14.9575L5.04357 13.6718C4.98332 13.6121 4.93549 13.541 4.90286 13.4626C4.87022 13.3843 4.85342 13.3003 4.85342 13.2154C4.85342 13.1305 4.87022 13.0465 4.90286 12.9682C4.93549 12.8898 4.98332 12.8187 5.04357 12.759Z" fill="black"/>
</svg>
